<?xml version="1.0" encoding="UTF-8" standalone="no"?>
<!-- Created with Inkscape (http://www.inkscape.org/) -->

<svg
   width="9.8000002in"
   height="4.4499998in"
   viewBox="0 0 248.92 113.02999"
   version="1.1"
   id="svg5"
   xml:space="preserve"
   inkscape:version="1.2 (dc2aedaf03, 2022-05-15)"
   sodipodi:docname="Consola_Nintendo.svg"
   xmlns:inkscape="http://www.inkscape.org/namespaces/inkscape"
   xmlns:sodipodi="http://sodipodi.sourceforge.net/DTD/sodipodi-0.dtd"
   xmlns="http://www.w3.org/2000/svg"
   xmlns:svg="http://www.w3.org/2000/svg"><sodipodi:namedview
     id="namedview7"
     pagecolor="#505050"
     bordercolor="#eeeeee"
     borderopacity="1"
     inkscape:showpageshadow="0"
     inkscape:pageopacity="0"
     inkscape:pagecheckerboard="0"
     inkscape:deskcolor="#505050"
     inkscape:document-units="mm"
     showgrid="false"
     inkscape:zoom="0.84096521"
     inkscape:cx="520.83011"
     inkscape:cy="428.07954"
     inkscape:window-width="1920"
     inkscape:window-height="1017"
     inkscape:window-x="1358"
     inkscape:window-y="-8"
     inkscape:window-maximized="1"
     inkscape:current-layer="layer1" /><defs
     id="defs2" /><g
     inkscape:label="Capa 1"
     inkscape:groupmode="layer"
     id="layer1"><path
       style="fill:#04b6bd;fill-opacity:1;stroke-width:1.19098;stroke-linecap:round;stroke-opacity:0"
       d="m 1.5129807,343.05819 c 0,-2.94305 0.2318954,-4.14702 0.5153232,-2.6755 0.2834278,1.47152 0.2834278,3.87947 0,5.351 -0.2834278,1.47152 -0.5153232,0.26754 -0.5153232,-2.6755 z"
       id="path1875"
       transform="scale(0.26458333)" /><g
       id="g8961"
       transform="translate(-11.071849,-106.52984)"><g
         id="g8810"
         transform="translate(80.856992,-12.1887)"><path
           style="fill:#01b4b7;fill-opacity:1;stroke:#000000;stroke-width:0.264583px;stroke-linecap:butt;stroke-linejoin:miter;stroke-opacity:1"
           d="m -69.917381,141.81799 c 6.63815,-13.46525 17.81126,-22.07163 36.18115,-22.96716 H 144.02325 c 12.52187,2.92572 25.66173,2.76155 34.97932,21.70868 v 69.84534 c -6.52944,15.55016 -14.19213,20.90106 -22.39458,21.39406 l -203.558211,-0.17509 c -13.36467,-5.70074 -18.7697,-8.01776 -22.96716,-21.21897 z"
           id="path385"
           sodipodi:nodetypes="ccccccccc" /><path
           style="fill:none;stroke:#000000;stroke-width:0.264583px;stroke-linecap:butt;stroke-linejoin:miter;stroke-opacity:1"
           d="m -28.001059,125.84746 165.804019,0.31462 0.31462,99.7341 H -27.371822 Z"
           id="path487"
           sodipodi:nodetypes="ccccc" /><path
           style="fill:#02a0a7;fill-opacity:1;stroke-width:1.19098;stroke-linecap:round;stroke-opacity:0"
           d="m -102.70857,778.56967 c -0.40448,-41.03916 -1.06902,-125.71864 -1.47676,-188.17664 l -0.74134,-113.55999 311.98656,0.40404 c 171.5926,0.22222 312.08684,0.50088 312.20943,0.61925 0.12258,0.11836 0.60855,84.61603 1.07992,187.7726 l 0.85704,187.55738 H 209.61657 -101.97315 Z"
           id="path2709"
           transform="scale(0.26458333)" /><rect
           style="fill:#00ff00;fill-opacity:1;stroke:#090505;stroke-width:1.365;stroke-linecap:round;stroke-dasharray:none;stroke-opacity:1"
           id="rect5109"
           width="145.98305"
           height="89.037079"
           x="-18.206928"
           y="131.03142"
           ry="0.20741537" /><g
           id="g8776"
           transform="translate(1.0221563,189.72952)"><path
             style="fill:#a0cbc7;fill-opacity:1;stroke:#090505;stroke-width:0.428;stroke-linecap:round;stroke-dasharray:none;stroke-opacity:1"
             id="path5770"
             sodipodi:type="arc"
             sodipodi:cx="-48.318184"
             sodipodi:cy="-27.015242"
             sodipodi:rx="9.2925224"
             sodipodi:ry="9.5150757"
             sodipodi:start="0.82816809"
             sodipodi:end="0.7553223"
             sodipodi:open="true"
             sodipodi:arc-type="arc"
             d="m -42.034334,-20.005544 a 9.2925224,9.5150757 0 0 1 -13.014027,-0.448769 9.2925224,9.5150757 0 0 1 0.201209,-13.331671 9.2925224,9.5150757 0 0 1 13.021354,-0.03678 9.2925224,9.5150757 0 0 1 0.273041,13.330332" /><path
             style="fill:#d7d7d7;fill-opacity:1;stroke:#090505;stroke-width:0.440994;stroke-linecap:round;stroke-dasharray:none;stroke-opacity:1"
             id="path6928"
             sodipodi:type="arc"
             sodipodi:cx="-48.370857"
             sodipodi:cy="-26.847462"
             sodipodi:rx="7.5593896"
             sodipodi:ry="7.6735516"
             sodipodi:start="0.82816809"
             sodipodi:end="0.7553223"
             sodipodi:open="true"
             sodipodi:arc-type="arc"
             d="m -43.258998,-21.194404 a 7.5593896,7.6735516 0 0 1 -10.586802,-0.361915 7.5593896,7.6735516 0 0 1 0.163681,-10.751493 7.5593896,7.6735516 0 0 1 10.592764,-0.02966 7.5593896,7.6735516 0 0 1 0.222116,10.750412" /></g><path
           style="fill:#d7d3d4;fill-opacity:1;stroke:#000000;stroke-width:0.264583px;stroke-linecap:butt;stroke-linejoin:miter;stroke-opacity:1"
           d="m -51.6695,193.17585 0.314619,-8.18009 7.236228,0.31462 v 7.55085 l 7.23623,0.31462 -0.314619,7.55085 -7.550848,-0.31462 0.314618,9.43856 -7.550846,-0.31462 v -8.80932 l -7.865466,-0.31462 0.629237,-7.55085 z"
           id="path7965"
           sodipodi:nodetypes="ccccccccccccc" /><rect
           style="fill:#d7d3d4;fill-opacity:1;stroke:#090505;stroke-width:0.428001;stroke-linecap:round;stroke-dasharray:none;stroke-opacity:1"
           id="rect8571"
           width="7.5508471"
           height="2.8315678"
           x="-40.886013"
           y="128.56456"
           ry="0.20741536" /><rect
           style="fill:#d7d3d4;fill-opacity:1;stroke:#090505;stroke-width:0.428001;stroke-linecap:round;stroke-dasharray:none;stroke-opacity:1"
           id="rect8573"
           width="8.4947033"
           height="7.5508471"
           x="-41.076229"
           y="217.00117"
           ry="0.20741534" /><g
           id="g8782"
           transform="translate(-124.77657,224.57671)"><path
             style="fill:#d7d3d4;fill-opacity:1;stroke:#090505;stroke-width:0.428001;stroke-linecap:round;stroke-dasharray:none;stroke-opacity:1"
             id="path8627"
             sodipodi:type="arc"
             sodipodi:cx="284.22955"
             sodipodi:cy="-70.188377"
             sodipodi:rx="4.4046607"
             sodipodi:ry="4.8765888"
             sodipodi:start="0.82816809"
             sodipodi:end="0.7553223"
             sodipodi:open="true"
             sodipodi:arc-type="arc"
             d="m 287.2081,-66.595825 a 4.4046607,4.8765888 0 0 1 -6.16865,-0.229999 4.4046607,4.8765888 0 0 1 0.0954,-6.832639 4.4046607,4.8765888 0 0 1 6.17213,-0.01885 4.4046607,4.8765888 0 0 1 0.12942,6.831952" /><path
             style="fill:#d7d3d4;fill-opacity:1;stroke:#090505;stroke-width:0.428001;stroke-linecap:round;stroke-dasharray:none;stroke-opacity:1"
             id="path8627-4"
             sodipodi:type="arc"
             sodipodi:cx="296.37076"
             sodipodi:cy="-58.204479"
             sodipodi:rx="4.4046607"
             sodipodi:ry="4.8765888"
             sodipodi:start="0.82816809"
             sodipodi:end="0.7553223"
             sodipodi:open="true"
             sodipodi:arc-type="arc"
             d="m 299.34931,-54.611926 a 4.4046607,4.8765888 0 0 1 -6.16866,-0.23 4.4046607,4.8765888 0 0 1 0.0954,-6.832639 4.4046607,4.8765888 0 0 1 6.17213,-0.01885 4.4046607,4.8765888 0 0 1 0.12942,6.831952" /><path
             style="fill:#d7d3d4;fill-opacity:1;stroke:#090505;stroke-width:0.428001;stroke-linecap:round;stroke-dasharray:none;stroke-opacity:1"
             id="path8627-5"
             sodipodi:type="arc"
             sodipodi:cx="284.34406"
             sodipodi:cy="-46.778141"
             sodipodi:rx="4.4046607"
             sodipodi:ry="4.8765888"
             sodipodi:start="0.82816809"
             sodipodi:end="0.7553223"
             sodipodi:open="true"
             sodipodi:arc-type="arc"
             d="m 287.3226,-43.185588 a 4.4046607,4.8765888 0 0 1 -6.16865,-0.23 4.4046607,4.8765888 0 0 1 0.0954,-6.832639 4.4046607,4.8765888 0 0 1 6.17213,-0.01885 4.4046607,4.8765888 0 0 1 0.12942,6.831953" /><path
             style="fill:#d7d3d4;fill-opacity:1;stroke:#090505;stroke-width:0.428001;stroke-linecap:round;stroke-dasharray:none;stroke-opacity:1"
             id="path8627-58"
             sodipodi:type="arc"
             sodipodi:cx="272.34122"
             sodipodi:cy="-58.432148"
             sodipodi:rx="4.4046607"
             sodipodi:ry="4.8765888"
             sodipodi:start="0.82816809"
             sodipodi:end="0.7553223"
             sodipodi:open="true"
             sodipodi:arc-type="arc"
             d="m 275.31977,-54.839595 a 4.4046607,4.8765888 0 0 1 -6.16866,-0.229999 4.4046607,4.8765888 0 0 1 0.0954,-6.83264 4.4046607,4.8765888 0 0 1 6.17213,-0.01885 4.4046607,4.8765888 0 0 1 0.12942,6.831953" /></g><g
           id="g8786"
           transform="translate(-124.27436,219.2892)"><path
             style="fill:#a0cbc7;fill-opacity:1;stroke:#090505;stroke-width:0.428;stroke-linecap:round;stroke-dasharray:none;stroke-opacity:1"
             id="path5770-3"
             sodipodi:type="arc"
             sodipodi:cx="284.10065"
             sodipodi:cy="-20.450235"
             sodipodi:rx="9.2925224"
             sodipodi:ry="9.5150757"
             sodipodi:start="0.82816809"
             sodipodi:end="0.7553223"
             sodipodi:open="true"
             sodipodi:arc-type="arc"
             d="m 290.3845,-13.440538 a 9.2925224,9.5150757 0 0 1 -13.01403,-0.448769 9.2925224,9.5150757 0 0 1 0.20121,-13.331671 9.2925224,9.5150757 0 0 1 13.02135,-0.03678 9.2925224,9.5150757 0 0 1 0.27304,13.330331" /><path
             style="fill:#d7d7d7;fill-opacity:1;stroke:#090505;stroke-width:0.440994;stroke-linecap:round;stroke-dasharray:none;stroke-opacity:1"
             id="path6928-5"
             sodipodi:type="arc"
             sodipodi:cx="284.04797"
             sodipodi:cy="-20.282455"
             sodipodi:rx="7.5593896"
             sodipodi:ry="7.6735516"
             sodipodi:start="0.82816809"
             sodipodi:end="0.7553223"
             sodipodi:open="true"
             sodipodi:arc-type="arc"
             d="m 289.15983,-14.629397 a 7.5593896,7.6735516 0 0 1 -10.5868,-0.361916 7.5593896,7.6735516 0 0 1 0.16368,-10.751492 7.5593896,7.6735516 0 0 1 10.59277,-0.02966 7.5593896,7.6735516 0 0 1 0.22211,10.750412" /></g><path
           style="fill:#d7d3d4;fill-opacity:1;stroke:#090505;stroke-width:0.428001;stroke-linecap:round;stroke-dasharray:none;stroke-opacity:1"
           id="path8627-5-4"
           sodipodi:type="arc"
           sodipodi:cx="147.63396"
           sodipodi:cy="220.41492"
           sodipodi:rx="4.4046607"
           sodipodi:ry="4.8765888"
           sodipodi:start="0.82816809"
           sodipodi:end="0.7553223"
           sodipodi:open="true"
           sodipodi:arc-type="arc"
           d="m 150.6125,224.00747 a 4.4046607,4.8765888 0 0 1 -6.16865,-0.23 4.4046607,4.8765888 0 0 1 0.0954,-6.83264 4.4046607,4.8765888 0 0 1 6.17213,-0.0188 4.4046607,4.8765888 0 0 1 0.12942,6.83195" /><g
           id="g8772"
           transform="translate(183.29377,201.68497)"><rect
             style="fill:#d7d3d4;fill-opacity:1;stroke:#090505;stroke-width:0;stroke-linecap:round;stroke-dasharray:none;stroke-opacity:1"
             id="rect8571-9"
             width="7.5508471"
             height="2.8315678"
             x="65.673424"
             y="-36.572857"
             ry="0.20741536"
             transform="rotate(-91.372441)" /><rect
             style="fill:#d7d3d4;fill-opacity:1;stroke:#090505;stroke-width:0;stroke-linecap:round;stroke-dasharray:none;stroke-opacity:1"
             id="rect8571-9-3"
             width="7.5508471"
             height="2.8315678"
             x="-40.862576"
             y="-69.90416"
             ry="0.20741536"
             transform="rotate(0.36730976)" /></g></g><text
         xml:space="preserve"
         style="font-style:normal;font-variant:normal;font-weight:bold;font-stretch:normal;font-size:6.35px;line-height:1.25;font-family:sans-serif;-inkscape-font-specification:'sans-serif Bold';fill:#000000;fill-opacity:1;stroke:none;stroke-width:0.264583"
         x="238.02196"
         y="144.31627"
         id="text8866"><tspan
           sodipodi:role="line"
           id="tspan8864"
           style="font-style:normal;font-variant:normal;font-weight:bold;font-stretch:normal;font-size:6.35px;font-family:sans-serif;-inkscape-font-specification:'sans-serif Bold';stroke-width:0.264583"
           x="238.02196"
           y="144.31627">X</tspan></text><text
         xml:space="preserve"
         style="font-style:normal;font-variant:normal;font-weight:bold;font-stretch:normal;font-size:6.35px;line-height:1.25;font-family:sans-serif;-inkscape-font-specification:'sans-serif Bold';fill:#000000;fill-opacity:1;stroke:none;stroke-width:0.264583"
         x="226.27536"
         y="156.39445"
         id="text8920"><tspan
           sodipodi:role="line"
           id="tspan8918"
           style="font-style:normal;font-variant:normal;font-weight:bold;font-stretch:normal;font-size:6.35px;font-family:sans-serif;-inkscape-font-specification:'sans-serif Bold';stroke-width:0.264583"
           x="226.27536"
           y="156.39445">Y</tspan></text><text
         xml:space="preserve"
         style="font-style:normal;font-weight:normal;font-size:6.35px;line-height:1.25;font-family:sans-serif;fill:#000000;fill-opacity:1;stroke:none;stroke-width:0.264583"
         x="250.10025"
         y="156.62213"
         id="text8924"><tspan
           sodipodi:role="line"
           id="tspan8922"
           style="font-style:normal;font-variant:normal;font-weight:bold;font-stretch:normal;font-size:6.35px;font-family:sans-serif;-inkscape-font-specification:'sans-serif Bold';stroke-width:0.264583"
           x="250.10025"
           y="156.62213">A</tspan></text><text
         xml:space="preserve"
         style="font-style:normal;font-weight:normal;font-size:6.35px;line-height:1.25;font-family:sans-serif;fill:#000000;fill-opacity:1;stroke:none;stroke-width:0.264583"
         x="237.86066"
         y="168.04846"
         id="text8928"><tspan
           sodipodi:role="line"
           id="tspan8926"
           style="font-style:normal;font-variant:normal;font-weight:bold;font-stretch:normal;font-size:6.35px;font-family:sans-serif;-inkscape-font-specification:'sans-serif Bold';stroke-width:0.264583"
           x="237.86066"
           y="168.04846">B</tspan></text></g></g>
</svg>
